<svg width="37" height="35" viewBox="0 0 37 35" fill="none" xmlns="http://www.w3.org/2000/svg">
<path fill-rule="evenodd" clip-rule="evenodd" d="M36.7051 17.6209C36.7051 25.6557 36.7051 29.6733 34.069 32.1694C31.4331 34.6656 27.1903 34.6656 18.7051 34.6656C10.2198 34.6656 5.97715 34.6656 3.34112 32.1694C0.705078 29.6733 0.705078 25.6557 0.705078 17.6209C0.705078 9.58591 0.705078 5.56844 3.34112 3.07232C5.97715 0.576172 10.2198 0.576172 18.7051 0.576172C27.1903 0.576172 31.4331 0.576172 34.069 3.07232C36.7051 5.56844 36.7051 9.58591 36.7051 17.6209ZM28.5232 8.93392C29.1163 9.36179 29.2308 10.1639 28.779 10.7255L16.436 26.0657C16.1903 26.3711 15.8125 26.5559 15.4071 26.5686C15.0019 26.5814 14.612 26.421 14.3452 26.1316L8.6881 19.9955C8.19776 19.4637 8.25557 18.6562 8.81725 18.1919C9.3789 17.7276 10.2317 17.7823 10.7221 18.3142L15.291 23.27L26.6312 9.17602C27.0832 8.61443 27.9303 8.50603 28.5232 8.93392Z" fill="url(#paint0_linear_427_402)"/>
<defs>
<linearGradient id="paint0_linear_427_402" x1="18.7051" y1="0.576172" x2="18.7051" y2="34.6656" gradientUnits="userSpaceOnUse">
<stop stop-color="#42FF42"/>
<stop offset="1" stop-color="#39C756"/>
</linearGradient>
</defs>
</svg>
