<svg width="35" height="35" viewBox="0 0 35 35" fill="none" xmlns="http://www.w3.org/2000/svg">
<path d="M29.1667 0H5.83333C4.28624 0 2.80251 0.614582 1.70854 1.70854C0.614582 2.80251 0 4.28624 0 5.83333V29.1667C0 30.7138 0.614582 32.1975 1.70854 33.2915C2.80251 34.3854 4.28624 35 5.83333 35H29.1667C30.7138 35 32.1975 34.3854 33.2915 33.2915C34.3854 32.1975 35 30.7138 35 29.1667V5.83333C35 4.28624 34.3854 2.80251 33.2915 1.70854C32.1975 0.614582 30.7138 0 29.1667 0ZM22.7694 20.0083C22.9517 20.1891 23.0963 20.4042 23.1951 20.6411C23.2938 20.878 23.3446 21.1322 23.3446 21.3889C23.3446 21.6456 23.2938 21.8997 23.1951 22.1367C23.0963 22.3736 22.9517 22.5887 22.7694 22.7694C22.5887 22.9517 22.3736 23.0963 22.1367 23.1951C21.8997 23.2938 21.6456 23.3446 21.3889 23.3446C21.1322 23.3446 20.878 23.2938 20.6411 23.1951C20.4042 23.0963 20.1891 22.9517 20.0083 22.7694L17.5 20.2417L14.9917 22.7694C14.8109 22.9517 14.5958 23.0963 14.3589 23.1951C14.122 23.2938 13.8678 23.3446 13.6111 23.3446C13.3544 23.3446 13.1003 23.2938 12.8633 23.1951C12.6264 23.0963 12.4113 22.9517 12.2306 22.7694C12.0483 22.5887 11.9037 22.3736 11.8049 22.1367C11.7062 21.8997 11.6554 21.6456 11.6554 21.3889C11.6554 21.1322 11.7062 20.878 11.8049 20.6411C11.9037 20.4042 12.0483 20.1891 12.2306 20.0083L14.7583 17.5L12.2306 14.9917C11.8644 14.6255 11.6587 14.1289 11.6587 13.6111C11.6587 13.0933 11.8644 12.5967 12.2306 12.2306C12.5967 11.8644 13.0933 11.6587 13.6111 11.6587C14.1289 11.6587 14.6255 11.8644 14.9917 12.2306L17.5 14.7583L20.0083 12.2306C20.3745 11.8644 20.8711 11.6587 21.3889 11.6587C21.9067 11.6587 22.4033 11.8644 22.7694 12.2306C23.1356 12.5967 23.3413 13.0933 23.3413 13.6111C23.3413 14.1289 23.1356 14.6255 22.7694 14.9917L20.2417 17.5L22.7694 20.0083Z" fill="url(#paint0_linear_427_460)"/>
<defs>
<linearGradient id="paint0_linear_427_460" x1="17.5" y1="0" x2="17.5" y2="35" gradientUnits="userSpaceOnUse">
<stop stop-color="#FF4242"/>
<stop offset="1" stop-color="#B72323"/>
</linearGradient>
</defs>
</svg>
