<svg width="84" height="70" viewBox="0 0 84 70" fill="none" xmlns="http://www.w3.org/2000/svg">
<path d="M83.7032 53.315V46.0982C82.7423 46.7086 81.7141 47.2061 80.6391 47.5809C77.2916 48.7921 72.9034 49.4591 68.2188 49.4591C63.5341 49.4591 59.1314 48.7921 55.7836 47.5809C54.7107 47.2062 53.6849 46.7086 52.7264 46.0982V53.5564C52.7264 55.2115 58.0014 58.299 68.2148 58.299C78.4282 58.299 83.7032 55.2115 83.7032 53.5564V53.315ZM68.1975 35.0599C78.4109 35.0599 83.7534 31.9721 83.7534 30.317C83.7534 28.662 78.4119 25.5742 68.1975 25.5742C57.9831 25.5742 52.6416 28.6618 52.6416 30.317C52.6416 31.9723 57.9843 35.0599 68.1975 35.0599Z" fill="url(#paint0_linear_427_489)"/>
<path d="M68.2188 61.0789C63.5338 61.0789 59.1315 60.4119 55.7836 59.2006C54.7105 58.826 53.6844 58.3284 52.7257 57.7179V65.257C52.7257 66.9121 58.0195 69.9996 68.2339 69.9996C70.7927 70.0106 73.3468 69.7803 75.8624 69.3118C78.3761 68.8295 80.4644 68.1204 81.9164 67.2665C83.0681 66.5882 83.7035 65.8567 83.7035 65.2574V57.7179C82.7426 58.3285 81.7144 58.826 80.6394 59.2006C77.2917 60.4119 72.9037 61.0789 68.2188 61.0789ZM83.7033 34.4768C82.7422 35.0874 81.7138 35.5851 80.6386 35.9599C77.2901 37.1712 72.9023 37.8391 68.2188 37.8391C63.5354 37.8391 59.1331 37.1717 55.7844 35.9599C54.7113 35.5852 53.6851 35.0875 52.7265 34.4768V41.9364C52.7265 43.5915 58.0015 46.679 68.2149 46.679C78.4283 46.679 83.7033 43.5915 83.7033 41.9364V34.4768ZM6.98124 13.5019C11.763 15.2324 18.149 16.1853 24.9633 16.1853C31.7776 16.1853 38.1636 15.2322 42.9453 13.5019C47.1578 11.9775 49.6727 9.96913 49.6727 8.12998C49.6727 6.29083 47.1578 4.2825 42.9453 2.75788C38.1636 1.02735 31.7774 0.0742188 24.9633 0.0742188C18.1492 0.0742188 11.763 1.02735 6.98124 2.75788C2.76879 4.2825 0.253906 6.29063 0.253906 8.12998C0.253906 9.96933 2.76879 11.9775 6.98124 13.5019ZM49.7479 43.5506V30.949C47.9692 32.2466 46.0115 33.279 43.936 34.0139C38.8602 35.8505 32.1064 36.862 24.9758 36.862C17.8452 36.862 11.1355 35.8505 6.05948 34.0139C3.64011 33.1386 1.69413 32.1023 0.304144 30.949V43.9231C0.304144 45.7636 2.80294 47.7724 7.01579 49.2964C11.796 51.0261 18.1669 51.9787 24.9829 51.9787C31.799 51.9787 38.2047 51.0255 42.985 49.2964C47.1957 47.7724 49.7479 45.7638 49.7479 43.9231V43.5506Z" fill="url(#paint1_linear_427_489)"/>
<path d="M49.7475 13.0508C47.9685 14.3486 46.0105 15.3811 43.9348 16.1161C38.8573 17.9537 32.1038 18.9656 24.9754 18.9656C17.8469 18.9656 11.1375 17.9529 6.05984 16.1161C3.64107 15.24 1.6937 14.2043 0.303711 13.0508V26.0269C0.303711 27.8674 2.80251 29.876 7.01536 31.4C11.7955 33.1297 18.1664 34.0823 24.9825 34.0823C31.7986 34.0823 38.2043 33.1291 42.9846 31.4C47.1963 29.876 49.7485 27.8674 49.7485 26.0269L49.7475 13.0508ZM24.9754 54.7589C17.8449 54.7589 11.1351 53.7474 6.05905 51.9108C3.63968 51.0355 1.6937 49.9992 0.303711 48.8457V61.9445C0.303711 63.7851 2.80251 65.7936 7.01536 67.3174C11.7955 69.0471 18.1662 69.9997 24.9825 69.9997C29.0004 70.0163 33.0111 69.6573 36.9622 68.9274C44.464 67.4882 49.7475 64.6157 49.7475 61.9435V48.8459C47.9688 50.1435 46.011 51.1759 43.9356 51.9108C38.8597 53.7474 32.106 54.7589 24.9754 54.7589Z" fill="url(#paint2_linear_427_489)"/>
<defs>
<linearGradient id="paint0_linear_427_489" x1="68.1975" y1="25.5742" x2="68.1975" y2="58.299" gradientUnits="userSpaceOnUse">
<stop offset="0.0288462" stop-color="#8462FF"/>
<stop offset="1" stop-color="#7465FF"/>
</linearGradient>
<linearGradient id="paint1_linear_427_489" x1="41.9787" y1="0.0742187" x2="41.9787" y2="70" gradientUnits="userSpaceOnUse">
<stop offset="0.0288462" stop-color="#8462FF"/>
<stop offset="1" stop-color="#7465FF"/>
</linearGradient>
<linearGradient id="paint2_linear_427_489" x1="25.0261" y1="13.0508" x2="25.0261" y2="70.0002" gradientUnits="userSpaceOnUse">
<stop offset="0.0288462" stop-color="#8462FF"/>
<stop offset="1" stop-color="#7465FF"/>
</linearGradient>
</defs>
</svg>
