<svg width="186" height="186" viewBox="0 0 186 186" fill="none" xmlns="http://www.w3.org/2000/svg">
<g style="mix-blend-mode:color-burn" opacity="0.1" filter="url(#filter0_d_522_20)">
<path d="M63.2997 159.467C64.2804 160.448 65.6107 161 66.9978 161H118.997C120.383 161 121.717 160.451 122.695 159.467L159.462 122.7C159.95 122.216 160.337 121.64 160.601 121.005C160.865 120.37 161 119.69 161 119.002V67.0031C161.001 66.3161 160.866 65.6357 160.603 65.0011C160.34 64.3664 159.954 63.79 159.467 63.3049L122.7 26.5378C122.216 26.0502 121.64 25.6633 121.005 25.3994C120.37 25.1354 119.69 24.9997 119.002 25H67.0031C66.3161 24.9993 65.6357 25.1343 65.0011 25.3973C64.3664 25.6604 63.79 26.0462 63.3049 26.5326L26.5378 63.2997C26.0502 63.7842 25.6633 64.3604 25.3993 64.9951C25.1354 65.6298 24.9997 66.3105 25 66.9979V118.997C25 120.383 25.5492 121.717 26.5326 122.695L63.2997 159.467ZM93 140.077C90.9184 140.076 88.9223 139.249 87.4508 137.776C85.9794 136.304 85.1531 134.307 85.1538 132.226C85.1545 130.144 85.9821 128.148 87.4545 126.676C88.927 125.205 90.9236 124.379 93.0052 124.379C94.0359 124.38 95.0565 124.583 96.0086 124.978C96.9607 125.373 97.8258 125.951 98.5544 126.68C99.283 127.409 99.8608 128.275 100.255 129.227C100.649 130.179 100.852 131.2 100.851 132.231C100.851 133.261 100.648 134.282 100.253 135.234C99.8582 136.186 99.2797 137.051 98.5507 137.78C97.8216 138.509 96.9562 139.086 96.0038 139.48C95.0514 139.875 94.0307 140.077 93 140.077ZM93 51.1539C94.3315 51.1536 95.6487 51.4296 96.868 51.9645C98.0874 52.4993 99.1826 53.2814 100.084 54.2612C100.986 55.241 101.674 56.3973 102.106 57.6568C102.538 58.9164 102.704 60.2518 102.593 61.5788L98.4295 111.522C98.3757 112.176 98.078 112.786 97.5955 113.231C97.1129 113.676 96.4809 113.923 95.8246 113.923H90.1754C89.52 113.923 88.8886 113.676 88.4062 113.233C87.9238 112.789 87.6255 112.18 87.5705 111.527L83.4068 61.584C83.2953 60.2567 83.4605 58.9206 83.8921 57.6604C84.3236 56.4003 85.012 55.2434 85.9137 54.263C86.8154 53.2826 87.9108 52.5 89.1306 51.9649C90.3504 51.4297 91.668 51.1535 93 51.1539Z" fill="white"/>
</g>
<defs>
<filter id="filter0_d_522_20" x="0" y="0" width="186" height="186" filterUnits="userSpaceOnUse" color-interpolation-filters="sRGB">
<feFlood flood-opacity="0" result="BackgroundImageFix"/>
<feColorMatrix in="SourceAlpha" type="matrix" values="0 0 0 0 0 0 0 0 0 0 0 0 0 0 0 0 0 0 127 0" result="hardAlpha"/>
<feOffset/>
<feGaussianBlur stdDeviation="12.5"/>
<feComposite in2="hardAlpha" operator="out"/>
<feColorMatrix type="matrix" values="0 0 0 0 0.135577 0 0 0 0 0.105769 0 0 0 0 1 0 0 0 1 0"/>
<feBlend mode="normal" in2="BackgroundImageFix" result="effect1_dropShadow_522_20"/>
<feBlend mode="normal" in="SourceGraphic" in2="effect1_dropShadow_522_20" result="shape"/>
</filter>
</defs>
</svg>
