<svg width="154" height="170" viewBox="0 0 154 170" fill="none" xmlns="http://www.w3.org/2000/svg">
<g opacity="0.1" filter="url(#filter0_d_522_14)">
<path d="M32.4286 130H39.8571V137.5C39.8571 139.489 40.6398 141.397 42.0329 142.803C43.426 144.21 45.3155 145 47.2857 145H121.571C123.542 145 125.431 144.21 126.824 142.803C128.217 141.397 129 139.489 129 137.5V47.5C129 45.5109 128.217 43.6032 126.824 42.1967C125.431 40.7902 123.542 40 121.571 40H114.143V32.5C114.143 30.5109 113.36 28.6032 111.967 27.1967C110.574 25.7902 108.684 25 106.714 25H32.4286C30.4584 25 28.5689 25.7902 27.1758 27.1967C25.7827 28.6032 25 30.5109 25 32.5V122.5C25 124.489 25.7827 126.397 27.1758 127.803C28.5689 129.21 30.4584 130 32.4286 130ZM121.571 47.5V137.5H47.2857V130H106.714C108.684 130 110.574 129.21 111.967 127.803C113.36 126.397 114.143 124.489 114.143 122.5V47.5H121.571ZM95.5714 40C96.5565 40 97.5013 40.3951 98.1978 41.0984C98.8944 41.8016 99.2857 42.7554 99.2857 43.75C99.2857 44.7446 98.8944 45.6984 98.1978 46.4016C97.5013 47.1049 96.5565 47.5 95.5714 47.5H65.5451C64.5601 47.5 63.6153 47.1049 62.9187 46.4016C62.2222 45.6984 61.8309 44.7446 61.8309 43.75C61.8309 42.7554 62.2222 41.8016 62.9187 41.0984C63.6153 40.3951 64.5601 40 65.5451 40H95.5714ZM43.2594 62.5H95.5714C96.5565 62.5 97.5013 62.8951 98.1978 63.5984C98.8944 64.3016 99.2857 65.2554 99.2857 66.25C99.2857 67.2446 98.8944 68.1984 98.1978 68.9016C97.5013 69.6049 96.5565 70 95.5714 70H43.2594C42.2743 70 41.3296 69.6049 40.633 68.9016C39.9365 68.1984 39.5451 67.2446 39.5451 66.25C39.5451 65.2554 39.9365 64.3016 40.633 63.5984C41.3296 62.8951 42.2743 62.5 43.2594 62.5ZM43.2594 85H95.5714C96.5565 85 97.5013 85.3951 98.1978 86.0983C98.8944 86.8016 99.2857 87.7554 99.2857 88.75C99.2857 89.7446 98.8944 90.6984 98.1978 91.4017C97.5013 92.1049 96.5565 92.5 95.5714 92.5H43.2594C42.2743 92.5 41.3296 92.1049 40.633 91.4017C39.9365 90.6984 39.5451 89.7446 39.5451 88.75C39.5451 87.7554 39.9365 86.8016 40.633 86.0983C41.3296 85.3951 42.2743 85 43.2594 85ZM43.2594 107.5H95.5714C96.5565 107.5 97.5013 107.895 98.1978 108.598C98.8944 109.302 99.2857 110.255 99.2857 111.25C99.2857 112.245 98.8944 113.198 98.1978 113.902C97.5013 114.605 96.5565 115 95.5714 115H43.2594C42.2743 115 41.3296 114.605 40.633 113.902C39.9365 113.198 39.5451 112.245 39.5451 111.25C39.5451 110.255 39.9365 109.302 40.633 108.598C41.3296 107.895 42.2743 107.5 43.2594 107.5Z" fill="white"/>
</g>
<defs>
<filter id="filter0_d_522_14" x="0" y="0" width="154" height="170" filterUnits="userSpaceOnUse" color-interpolation-filters="sRGB">
<feFlood flood-opacity="0" result="BackgroundImageFix"/>
<feColorMatrix in="SourceAlpha" type="matrix" values="0 0 0 0 0 0 0 0 0 0 0 0 0 0 0 0 0 0 127 0" result="hardAlpha"/>
<feOffset/>
<feGaussianBlur stdDeviation="12.5"/>
<feComposite in2="hardAlpha" operator="out"/>
<feColorMatrix type="matrix" values="0 0 0 0 0.302885 0 0 0 0 0.302885 0 0 0 0 1 0 0 0 1 0"/>
<feBlend mode="normal" in2="BackgroundImageFix" result="effect1_dropShadow_522_14"/>
<feBlend mode="normal" in="SourceGraphic" in2="effect1_dropShadow_522_14" result="shape"/>
</filter>
</defs>
</svg>
