<svg width="186" height="181" viewBox="0 0 186 181" fill="none" xmlns="http://www.w3.org/2000/svg">
<g opacity="0.1" filter="url(#filter0_d_522_8)">
<path d="M141.571 25H44.4286C33.6943 25 25 33.6976 25 44.4359V118.438C25 129.176 33.6943 137.874 44.4286 137.874H59V154.249C59 155.221 59.8257 156.047 60.7971 155.998C72.5514 155.318 82.5086 148.078 87.1714 137.874H141.571C152.306 137.874 161 129.176 161 118.438V44.4359C161 33.6976 152.306 25 141.571 25ZM96.1086 110.27C95.6714 110.712 95.1857 110.999 94.6514 111.242C94.1171 111.436 93.5829 111.582 93 111.582C91.8343 111.582 90.7171 111.096 89.8914 110.265C89.1143 109.493 88.6286 108.327 88.6286 107.204C88.6286 106.043 89.1143 104.92 89.8914 104.094C91.1057 102.88 93.0486 102.491 94.6514 103.171C95.1857 103.366 95.6714 103.706 96.1086 104.094C96.8857 104.92 97.3714 106.038 97.3714 107.204C97.3714 108.331 96.8857 109.498 96.1086 110.27ZM101.461 86.5875C98.9403 87.8751 97.3714 90.29 97.3714 92.8896C97.3714 95.3045 95.414 97.2627 93 97.2627C90.586 97.2627 88.6286 95.3045 88.6286 92.8896C88.6286 86.9811 92.0237 81.5828 97.488 78.7986C100.917 77.0542 103.836 72.9095 102.637 67.5889C101.816 63.9544 98.9257 61.0925 95.278 60.3005C90.0031 59.1489 85.8697 62.0788 84.1454 65.4995C83.446 66.8844 83.0914 68.3858 83.0914 69.9552C83.0914 72.3702 81.134 74.3283 78.72 74.3283C76.306 74.3283 74.3486 72.3702 74.3486 69.9552C74.3486 67.0447 75.0383 64.1439 76.34 61.5589C80.1771 53.9498 88.7257 49.8925 97.1334 51.7487C104.089 53.2598 109.592 58.7213 111.161 65.655C113.07 74.0951 109.082 82.7052 101.461 86.5875Z" fill="white"/>
</g>
<defs>
<filter id="filter0_d_522_8" x="0" y="0" width="186" height="181" filterUnits="userSpaceOnUse" color-interpolation-filters="sRGB">
<feFlood flood-opacity="0" result="BackgroundImageFix"/>
<feColorMatrix in="SourceAlpha" type="matrix" values="0 0 0 0 0 0 0 0 0 0 0 0 0 0 0 0 0 0 127 0" result="hardAlpha"/>
<feOffset/>
<feGaussianBlur stdDeviation="12.5"/>
<feComposite in2="hardAlpha" operator="out"/>
<feColorMatrix type="matrix" values="0 0 0 0 0.302885 0 0 0 0 0.302885 0 0 0 0 1 0 0 0 1 0"/>
<feBlend mode="normal" in2="BackgroundImageFix" result="effect1_dropShadow_522_8"/>
<feBlend mode="normal" in="SourceGraphic" in2="effect1_dropShadow_522_8" result="shape"/>
</filter>
</defs>
</svg>
