<svg width="84" height="84" viewBox="0 0 84 84" fill="none" xmlns="http://www.w3.org/2000/svg">
<path d="M46.4742 17.3096C46.2315 17.3108 45.9924 17.251 45.7789 17.1358L41.9986 15.0356L38.2183 17.1358C37.9845 17.2627 37.7203 17.3229 37.4546 17.3097C37.189 17.2964 36.9321 17.2102 36.7121 17.0606C36.4922 16.911 36.3177 16.7037 36.2078 16.4615C36.0979 16.2192 36.0568 15.9514 36.0891 15.6874L36.8278 11.1683L33.7137 7.98184C33.5325 7.79303 33.4059 7.55866 33.3472 7.30363C33.2886 7.0486 33.3001 6.78244 33.3806 6.53344C33.4657 6.28069 33.6189 6.05633 33.8233 5.8851C34.0278 5.71387 34.2755 5.60241 34.5393 5.56301L38.7831 4.91123L40.6805 0.855696C40.7957 0.602822 40.9813 0.388428 41.215 0.238089C41.4487 0.0877496 41.7207 0.0078125 41.9986 0.0078125C42.2765 0.0078125 42.5485 0.0877496 42.7822 0.238089C43.0159 0.388428 43.2014 0.602822 43.3166 0.855696L45.214 4.91123L49.4579 5.56301C49.7216 5.60241 49.9694 5.71387 50.1738 5.8851C50.3783 6.05633 50.5315 6.28069 50.6166 6.53344C50.6971 6.78244 50.7086 7.0486 50.65 7.30363C50.5913 7.55866 50.4646 7.79303 50.2835 7.98184L47.1694 11.1683L47.9081 15.6874C47.9583 15.9603 47.929 16.2419 47.8237 16.4987C47.7184 16.7555 47.5416 16.9766 47.3142 17.1358C47.0582 17.2772 46.7653 17.3378 46.4742 17.3096ZM41.9986 11.936C42.2433 11.933 42.4841 11.9982 42.6938 12.1243L44.5623 13.1526L44.1857 10.8497C44.1488 10.6259 44.165 10.3967 44.2329 10.1803C44.3008 9.96395 44.4186 9.76657 44.5767 9.60405L46.2279 7.90942L44.0119 7.57629C43.7784 7.53996 43.5573 7.44706 43.368 7.30568C43.1786 7.1643 43.0267 6.97874 42.9256 6.76518L41.9986 4.78087L41.0716 6.76518C40.9704 6.97874 40.8186 7.1643 40.6292 7.30568C40.4399 7.44706 40.2188 7.53996 39.9853 7.57629L37.7692 7.90942L39.4204 9.60405C39.5786 9.76657 39.6963 9.96395 39.7643 10.1803C39.8322 10.3967 39.8484 10.6259 39.8115 10.8497L39.4349 13.1526L41.3034 12.1243C41.5131 11.9982 41.7539 11.933 41.9986 11.936ZM46.4742 83.9361C46.2315 83.9373 45.9924 83.8776 45.7789 83.7623L41.9986 81.6621L38.2183 83.7623C37.9845 83.8893 37.7203 83.9495 37.4546 83.9362C37.189 83.923 36.9321 83.8368 36.7121 83.6872C36.4922 83.5376 36.3177 83.3303 36.2078 83.088C36.0979 82.8458 36.0568 82.578 36.0891 82.3139L36.8278 77.7949L33.7137 74.6084C33.5325 74.4196 33.4059 74.1852 33.3472 73.9302C33.2886 73.6752 33.3001 73.409 33.3806 73.16C33.4657 72.9073 33.6189 72.6829 33.8233 72.5117C34.0278 72.3404 34.2755 72.229 34.5393 72.1896L38.7831 71.5378L40.6805 67.4823C40.7957 67.2294 40.9813 67.015 41.215 66.8647C41.4487 66.7143 41.7207 66.6344 41.9986 66.6344C42.2765 66.6344 42.5485 66.7143 42.7822 66.8647C43.0159 67.015 43.2014 67.2294 43.3166 67.4823L45.214 71.5378L49.4579 72.1896C49.7216 72.229 49.9694 72.3404 50.1738 72.5117C50.3783 72.6829 50.5315 72.9073 50.6166 73.16C50.6971 73.409 50.7086 73.6752 50.65 73.9302C50.5913 74.1852 50.4646 74.4196 50.2835 74.6084L47.1694 77.7949L47.9081 82.3139C47.9583 82.5869 47.929 82.8685 47.8237 83.1253C47.7184 83.382 47.5416 83.6032 47.3142 83.7623C47.0582 83.9038 46.7653 83.9644 46.4742 83.9361ZM41.9986 78.5626C42.2433 78.5596 42.4841 78.6247 42.6938 78.7508L44.5623 79.7792L44.1857 77.4763C44.1488 77.2525 44.165 77.0232 44.2329 76.8069C44.3008 76.5905 44.4186 76.3932 44.5767 76.2306L46.2279 74.536L44.0119 74.2029C43.7784 74.1665 43.5573 74.0736 43.368 73.9323C43.1786 73.7909 43.0267 73.6053 42.9256 73.3918L41.9986 71.4074L41.0716 73.3918C40.9704 73.6053 40.8186 73.7909 40.6292 73.9323C40.4399 74.0736 40.2188 74.1665 39.9853 74.2029L37.7692 74.536L39.4204 76.2306C39.5786 76.3932 39.6963 76.5905 39.7643 76.8069C39.8322 77.0232 39.8484 77.2525 39.8115 77.4763L39.4349 79.7792L41.3034 78.7508C41.5131 78.6247 41.7539 78.5596 41.9986 78.5626ZM13.1609 50.6228C12.9182 50.6241 12.6792 50.5643 12.4656 50.449L8.6853 48.3489L4.90496 50.449C4.67123 50.576 4.40703 50.6362 4.14136 50.6229C3.87568 50.6097 3.61878 50.5235 3.39884 50.3739C3.1789 50.2243 3.00441 50.017 2.89451 49.7747C2.78461 49.5325 2.74354 49.2647 2.77581 49.0006L3.5145 44.4816L0.400429 41.2951C0.219236 41.1063 0.0925817 40.8719 0.0339248 40.6169C-0.024732 40.3619 -0.0132 40.0957 0.0672958 39.8467C0.152376 39.594 0.305587 39.3696 0.510042 39.1984C0.714497 39.0272 0.962258 38.9157 1.22602 38.8763L5.46984 38.2245L7.36725 34.169C7.48246 33.9161 7.66799 33.7017 7.90169 33.5514C8.1354 33.401 8.40741 33.3211 8.6853 33.3211C8.96318 33.3211 9.2352 33.401 9.4689 33.5514C9.70261 33.7017 9.88813 33.9161 10.0033 34.169L11.9008 38.2245L16.1446 38.8763C16.4083 38.9157 16.6561 39.0272 16.8606 39.1984C17.065 39.3696 17.2182 39.594 17.3033 39.8467C17.3838 40.0957 17.3953 40.3619 17.3367 40.6169C17.278 40.8719 17.1514 41.1063 16.9702 41.2951L13.8561 44.4816L14.5948 49.0006C14.645 49.2736 14.6157 49.5552 14.5104 49.812C14.4051 50.0687 14.2283 50.2899 14.0009 50.449C13.7449 50.5905 13.452 50.6511 13.1609 50.6228ZM8.6853 45.2493C8.93003 45.2463 9.17076 45.3115 9.38053 45.4376L11.249 46.4659L10.8724 44.163C10.8355 43.9392 10.8517 43.7099 10.9196 43.4936C10.9875 43.2772 11.1053 43.0799 11.2635 42.9173L12.9146 41.2227L10.6986 40.8896C10.4651 40.8532 10.244 40.7603 10.0547 40.619C9.86532 40.4776 9.71344 40.292 9.61228 40.0785L8.6853 38.0942L7.75832 40.0785C7.65715 40.292 7.50527 40.4776 7.31593 40.619C7.12658 40.7603 6.90551 40.8532 6.67202 40.8896L4.45596 41.2227L6.10714 42.9173C6.26528 43.0799 6.38306 43.2772 6.45098 43.4936C6.51891 43.7099 6.53508 43.9392 6.49821 44.163L6.12162 46.4659L7.99006 45.4376C8.19983 45.3115 8.44057 45.2463 8.6853 45.2493ZM79.7874 50.6228C79.5448 50.6241 79.3057 50.5643 79.0922 50.449L75.3119 48.3489L71.5315 50.449C71.2978 50.576 71.0336 50.6362 70.7679 50.6229C70.5023 50.6097 70.2454 50.5235 70.0254 50.3739C69.8055 50.2243 69.631 50.017 69.5211 49.7747C69.4112 49.5325 69.3701 49.2647 69.4024 49.0006L70.1411 44.4816L67.027 41.2951C66.8458 41.1063 66.7192 40.8719 66.6605 40.6169C66.6018 40.3619 66.6134 40.0957 66.6939 39.8467C66.7789 39.594 66.9322 39.3696 67.1366 39.1984C67.3411 39.0272 67.5888 38.9157 67.8526 38.8763L72.0964 38.2245L73.9938 34.169C74.109 33.9161 74.2946 33.7017 74.5283 33.5514C74.762 33.401 75.034 33.3211 75.3119 33.3211C75.5898 33.3211 75.8618 33.401 76.0955 33.5514C76.3292 33.7017 76.5147 33.9161 76.6299 34.169L78.5273 38.2245L82.7711 38.8763C83.0349 38.9157 83.2827 39.0272 83.4871 39.1984C83.6916 39.3696 83.8448 39.594 83.9299 39.8467C84.0104 40.0957 84.0219 40.3619 83.9632 40.6169C83.9046 40.8719 83.7779 41.1063 83.5967 41.2951L80.4827 44.4816L81.2214 49.0006C81.2715 49.2736 81.2422 49.5552 81.137 49.812C81.0317 50.0687 80.8549 50.2899 80.6275 50.449C80.3715 50.5905 80.0786 50.6511 79.7874 50.6228ZM75.3119 45.2493C75.5566 45.2463 75.7973 45.3115 76.0071 45.4376L77.8755 46.4659L77.499 44.163C77.4621 43.9392 77.4783 43.7099 77.5462 43.4936C77.6141 43.2772 77.7319 43.0799 77.89 42.9173L79.5412 41.2227L77.3251 40.8896C77.0917 40.8532 76.8706 40.7603 76.6812 40.619C76.4919 40.4776 76.34 40.292 76.2388 40.0785L75.3119 38.0942L74.3849 40.0785C74.2837 40.292 74.1318 40.4776 73.9425 40.619C73.7532 40.7603 73.5321 40.8532 73.2986 40.8896L71.0825 41.2227L72.7337 42.9173C72.8919 43.0799 73.0096 43.2772 73.0776 43.4936C73.1455 43.7099 73.1617 43.9392 73.1248 44.163L72.7482 46.4659L74.6166 45.4376C74.8264 45.3115 75.0671 45.2463 75.3119 45.2493ZM69.6486 27.4484C69.406 27.4496 69.1669 27.3898 68.9534 27.2746L65.173 25.1744L61.3927 27.2746C61.159 27.4016 60.8948 27.4617 60.6291 27.4485C60.3634 27.4352 60.1065 27.3491 59.8866 27.1994C59.6666 27.0498 59.4922 26.8425 59.3823 26.6003C59.2724 26.358 59.2313 26.0902 59.2636 25.8262L60.0022 21.3072L56.8882 18.1207C56.707 17.9319 56.5803 17.6975 56.5217 17.4425C56.463 17.1874 56.4745 16.9213 56.555 16.6723C56.6401 16.4195 56.7933 16.1952 56.9978 16.0239C57.2022 15.8527 57.45 15.7412 57.7138 15.7018L61.9576 15.0501L63.855 10.9945C63.9702 10.7416 64.1557 10.5273 64.3894 10.3769C64.6231 10.2266 64.8952 10.1466 65.173 10.1466C65.4509 10.1466 65.7229 10.2266 65.9566 10.3769C66.1904 10.5273 66.3759 10.7416 66.4911 10.9945L68.3885 15.0501L72.6323 15.7018C72.8961 15.7412 73.1438 15.8527 73.3483 16.0239C73.5528 16.1952 73.706 16.4195 73.791 16.6723C73.8715 16.9213 73.8831 17.1874 73.8244 17.4425C73.7658 17.6975 73.6391 17.9319 73.4579 18.1207L70.3438 21.3072L71.0825 25.8262C71.1327 26.0991 71.1034 26.3807 70.9981 26.6375C70.8929 26.8943 70.716 27.1154 70.4887 27.2746C70.2326 27.416 69.9398 27.4766 69.6486 27.4484ZM65.173 22.0748C65.4178 22.0718 65.6585 22.137 65.8683 22.2631L67.7367 23.2915L67.3601 20.9885C67.3233 20.7648 67.3394 20.5355 67.4074 20.3191C67.4753 20.1028 67.5931 19.9054 67.7512 19.7429L69.4024 18.0482L67.1863 17.7151C66.9528 17.6788 66.7318 17.5859 66.5424 17.4445C66.3531 17.3031 66.2012 17.1176 66.1 16.904L65.173 14.9197L64.2461 16.904C64.1449 17.1176 63.993 17.3031 63.8037 17.4445C63.6143 17.5859 63.3933 17.6788 63.1598 17.7151L60.9437 18.0482L62.5949 19.7429C62.753 19.9054 62.8708 20.1028 62.9387 20.3191C63.0067 20.5355 63.0228 20.7648 62.986 20.9885L62.6094 23.2915L64.4778 22.2631C64.6876 22.137 64.9283 22.0718 65.173 22.0748ZM23.2997 27.4484C23.057 27.4496 22.818 27.3898 22.6045 27.2746L18.8241 25.1744L15.0438 27.2746C14.8101 27.4016 14.5459 27.4617 14.2802 27.4485C14.0145 27.4352 13.7576 27.3491 13.5377 27.1994C13.3177 27.0498 13.1432 26.8425 13.0333 26.6003C12.9234 26.358 12.8824 26.0902 12.9146 25.8262L13.6533 21.3072L10.5393 18.1207C10.3581 17.9319 10.2314 17.6975 10.1728 17.4425C10.1141 17.1874 10.1256 16.9213 10.2061 16.6723C10.2912 16.4195 10.4444 16.1952 10.6489 16.0239C10.8533 15.8527 11.1011 15.7412 11.3648 15.7018L15.6087 15.0501L17.5061 10.9945C17.6213 10.7416 17.8068 10.5273 18.0405 10.3769C18.2742 10.2266 18.5462 10.1466 18.8241 10.1466C19.102 10.1466 19.374 10.2266 19.6077 10.3769C19.8414 10.5273 20.027 10.7416 20.1422 10.9945L22.0396 15.0501L26.2834 15.7018C26.5472 15.7412 26.7949 15.8527 26.9994 16.0239C27.2038 16.1952 27.357 16.4195 27.4421 16.6723C27.5226 16.9213 27.5342 17.1874 27.4755 17.4425C27.4168 17.6975 27.2902 17.9319 27.109 18.1207L23.9949 21.3072L24.7336 25.8262C24.7838 26.0991 24.7545 26.3807 24.6492 26.6375C24.5439 26.8943 24.3671 27.1154 24.1398 27.2746C23.8837 27.416 23.5908 27.4766 23.2997 27.4484ZM18.8241 22.0748C19.0689 22.0718 19.3096 22.137 19.5194 22.2631L21.3878 23.2915L21.0112 20.9885C20.9743 20.7648 20.9905 20.5355 21.0584 20.3191C21.1264 20.1028 21.2441 19.9054 21.4023 19.7429L23.0535 18.0482L20.8374 17.7151C20.6039 17.6788 20.3828 17.5859 20.1935 17.4445C20.0042 17.3031 19.8523 17.1176 19.7511 16.904L18.8241 14.9197L17.8971 16.904C17.796 17.1176 17.6441 17.3031 17.4548 17.4445C17.2654 17.5859 17.0443 17.6788 16.8108 17.7151L14.5948 18.0482L16.246 19.7429C16.4041 19.9054 16.5219 20.1028 16.5898 20.3191C16.6577 20.5355 16.6739 20.7648 16.637 20.9885L16.2604 23.2915L18.1289 22.2631C18.3387 22.137 18.5794 22.0718 18.8241 22.0748ZM24.7481 72.3489C24.5055 72.3501 24.2664 72.2904 24.0529 72.1751L20.2725 70.0749L16.4922 72.1751C16.2585 72.3021 15.9943 72.3623 15.7286 72.349C15.4629 72.3357 15.206 72.2496 14.9861 72.1C14.7661 71.9503 14.5916 71.743 14.4817 71.5008C14.3718 71.2586 14.3308 70.9907 14.363 70.7267L15.1017 66.2077L11.9877 63.0212C11.8065 62.8324 11.6798 62.598 11.6212 62.343C11.5625 62.0879 11.574 61.8218 11.6545 61.5728C11.7396 61.32 11.8928 61.0957 12.0973 60.9244C12.3017 60.7532 12.5495 60.6418 12.8132 60.6023L17.0571 59.9506L18.9545 55.895C19.0697 55.6422 19.2552 55.4278 19.4889 55.2774C19.7226 55.1271 19.9946 55.0472 20.2725 55.0472C20.5504 55.0472 20.8224 55.1271 21.0561 55.2774C21.2898 55.4278 21.4754 55.6422 21.5906 55.895L23.488 59.9506L27.7318 60.6023C27.9956 60.6418 28.2433 60.7532 28.4478 60.9244C28.6522 61.0957 28.8055 61.32 28.8905 61.5728C28.971 61.8218 28.9826 62.0879 28.9239 62.343C28.8652 62.598 28.7386 62.8324 28.5574 63.0212L25.4433 66.2077L26.182 70.7267C26.2322 70.9996 26.2029 71.2812 26.0976 71.538C25.9923 71.7948 25.8155 72.0159 25.5882 72.1751C25.3321 72.3165 25.0392 72.3771 24.7481 72.3489ZM20.2725 66.9753C20.5173 66.9723 20.758 67.0375 20.9678 67.1636L22.8362 68.192L22.4596 65.889C22.4227 65.6653 22.4389 65.436 22.5068 65.2197C22.5748 65.0033 22.6925 64.8059 22.8507 64.6434L24.5019 62.9488L22.2858 62.6156C22.0523 62.5793 21.8312 62.4864 21.6419 62.345C21.4526 62.2036 21.3007 62.0181 21.1995 61.8045L20.2725 59.8202L19.3456 61.8045C19.2444 62.0181 19.0925 62.2036 18.9032 62.345C18.7138 62.4864 18.4927 62.5793 18.2592 62.6156L16.0432 62.9488L17.6944 64.6434C17.8525 64.8059 17.9703 65.0033 18.0382 65.2197C18.1061 65.436 18.1223 65.6653 18.0854 65.889L17.7089 68.192L19.5773 67.1636C19.7871 67.0375 20.0278 66.9723 20.2725 66.9753ZM69.6486 73.7973C69.406 73.7985 69.1669 73.7388 68.9534 73.6235L65.173 71.5233L61.3927 73.6235C61.159 73.7505 60.8948 73.8107 60.6291 73.7974C60.3634 73.7841 60.1065 73.698 59.8866 73.5484C59.6666 73.3988 59.4922 73.1915 59.3823 72.9492C59.2724 72.707 59.2313 72.4391 59.2636 72.1751L60.0022 67.6561L56.8882 64.4696C56.707 64.2808 56.5803 64.0464 56.5217 63.7914C56.463 63.5363 56.4745 63.2702 56.555 63.0212C56.6401 62.7684 56.7933 62.5441 56.9978 62.3728C57.2022 62.2016 57.45 62.0902 57.7138 62.0508L61.9576 61.399L63.855 57.3434C63.9702 57.0906 64.1557 56.8762 64.3894 56.7258C64.6231 56.5755 64.8952 56.4956 65.173 56.4956C65.4509 56.4956 65.7229 56.5755 65.9566 56.7258C66.1904 56.8762 66.3759 57.0906 66.4911 57.3434L68.3885 61.399L72.6323 62.0508C72.8961 62.0902 73.1438 62.2016 73.3483 62.3728C73.5528 62.5441 73.706 62.7684 73.791 63.0212C73.8715 63.2702 73.8831 63.5363 73.8244 63.7914C73.7658 64.0464 73.6391 64.2808 73.4579 64.4696L70.3438 67.6561L71.0825 72.1751C71.1327 72.448 71.1034 72.7297 70.9981 72.9864C70.8929 73.2432 70.716 73.4643 70.4887 73.6235C70.2326 73.7649 69.9398 73.8255 69.6486 73.7973ZM65.173 68.4237C65.4178 68.4207 65.6585 68.4859 65.8683 68.612L67.7367 69.6404L67.3601 67.3374C67.3233 67.1137 67.3394 66.8844 67.4074 66.6681C67.4753 66.4517 67.5931 66.2543 67.7512 66.0918L69.4024 64.3972L67.1863 64.064C66.9528 64.0277 66.7318 63.9348 66.5424 63.7934C66.3531 63.652 66.2012 63.4665 66.1 63.2529L65.173 61.2686L64.2461 63.2529C64.1449 63.4665 63.993 63.652 63.8037 63.7934C63.6143 63.9348 63.3933 64.0277 63.1598 64.064L60.9437 64.3972L62.5949 66.0918C62.753 66.2543 62.8708 66.4517 62.9387 66.6681C63.0067 66.8844 63.0228 67.1137 62.986 67.3374L62.6094 69.6404L64.4778 68.612C64.6876 68.4859 64.9283 68.4207 65.173 68.4237ZM50.689 56.4165H33.3082C32.1557 56.4165 31.0505 55.9587 30.2356 55.1438C29.4207 54.3289 28.963 53.2237 28.963 52.0713V40.484C28.963 39.3316 29.4207 38.2264 30.2356 37.4115C31.0505 36.5966 32.1557 36.1388 33.3082 36.1388H50.689C51.8414 36.1388 52.9466 36.5966 53.7615 37.4115C54.5764 38.2264 55.0342 39.3316 55.0342 40.484V52.0713C55.0342 53.2237 54.5764 54.3289 53.7615 55.1438C52.9466 55.9587 51.8414 56.4165 50.689 56.4165ZM33.3082 39.0356C32.924 39.0356 32.5556 39.1882 32.284 39.4598C32.0124 39.7315 31.8598 40.0999 31.8598 40.484V52.0713C31.8598 52.4554 32.0124 52.8238 32.284 53.0954C32.5556 53.3671 32.924 53.5197 33.3082 53.5197H50.689C51.0731 53.5197 51.4416 53.3671 51.7132 53.0954C51.9848 52.8238 52.1374 52.4554 52.1374 52.0713V40.484C52.1374 40.0999 51.9848 39.7315 51.7132 39.4598C51.4416 39.1882 51.0731 39.0356 50.689 39.0356H33.3082Z" fill="url(#paint0_linear_427_484)"/>
<path d="M49.241 39.0348H34.757C34.3729 39.0348 34.0044 38.8822 33.7328 38.6106C33.4612 38.339 33.3086 37.9706 33.3086 37.5864V33.2412C33.3086 30.9364 34.2242 28.7259 35.854 27.0961C37.4837 25.4664 39.6942 24.5508 41.999 24.5508C44.3039 24.5508 46.5143 25.4664 48.1441 27.0961C49.7738 28.7259 50.6894 30.9364 50.6894 33.2412V37.5864C50.6894 37.9706 50.5368 38.339 50.2652 38.6106C49.9936 38.8822 49.6252 39.0348 49.241 39.0348ZM36.2054 36.138H47.7926V33.2412C47.7926 31.7046 47.1822 30.231 46.0957 29.1445C45.0092 28.058 43.5356 27.4476 41.999 27.4476C40.4625 27.4476 38.9888 28.058 37.9023 29.1445C36.8158 30.231 36.2054 31.7046 36.2054 33.2412V36.138ZM40.5506 50.622C40.36 50.6231 40.171 50.5866 39.9946 50.5145C39.8181 50.4425 39.6576 50.3363 39.5222 50.202L36.6254 47.3052C36.3527 47.0325 36.1995 46.6625 36.1995 46.2768C36.1995 45.8911 36.3527 45.5212 36.6254 45.2485C36.8982 44.9757 37.2681 44.8225 37.6538 44.8225C38.0395 44.8225 38.4094 44.9757 38.6822 45.2485L40.5506 47.1314L45.3159 42.3517C45.5886 42.0789 45.9585 41.9257 46.3442 41.9257C46.7299 41.9257 47.0999 42.0789 47.3726 42.3517C47.6453 42.6244 47.7986 42.9943 47.7986 43.38C47.7986 43.7657 47.6453 44.1357 47.3726 44.4084L41.579 50.202C41.4436 50.3363 41.2831 50.4425 41.1067 50.5145C40.9302 50.5866 40.7412 50.6231 40.5506 50.622Z" fill="url(#paint1_linear_427_484)"/>
<defs>
<linearGradient id="paint0_linear_427_484" x1="41.9986" y1="0.0078125" x2="41.9986" y2="83.9429" gradientUnits="userSpaceOnUse">
<stop offset="0.0288462" stop-color="#8462FF"/>
<stop offset="1" stop-color="#7465FF"/>
</linearGradient>
<linearGradient id="paint1_linear_427_484" x1="41.999" y1="24.5508" x2="41.999" y2="50.6221" gradientUnits="userSpaceOnUse">
<stop offset="0.0288462" stop-color="#8462FF"/>
<stop offset="1" stop-color="#7465FF"/>
</linearGradient>
</defs>
</svg>
