<svg width="185" height="185" viewBox="0 0 185 185" fill="none" xmlns="http://www.w3.org/2000/svg">
<g opacity="0.1" filter="url(#filter0_d_522_17)">
<path d="M92.5 25C79.1498 25 66.0993 28.9588 54.999 36.3758C43.8987 43.7928 35.2471 54.3348 30.1382 66.6689C25.0292 79.0029 23.6925 92.5749 26.297 105.669C28.9015 118.762 35.3303 130.79 44.7703 140.23C54.2104 149.67 66.2377 156.098 79.3314 158.703C92.4251 161.307 105.997 159.971 118.331 154.862C130.665 149.753 141.207 141.101 148.624 130.001C156.041 118.901 160 105.85 160 92.5C160 83.6358 158.254 74.8583 154.862 66.6689C151.47 58.4794 146.498 51.0382 140.23 44.7703C133.962 38.5023 126.521 33.5303 118.331 30.1381C110.142 26.7459 101.364 25 92.5 25ZM92.5 133C91.165 133 89.8599 132.604 88.7499 131.862C87.6399 131.121 86.7747 130.066 86.2638 128.833C85.7529 127.6 85.6193 126.242 85.8797 124.933C86.1402 123.624 86.783 122.421 87.7271 121.477C88.6711 120.533 89.8738 119.89 91.1832 119.63C92.4925 119.369 93.8497 119.503 95.0831 120.014C96.3165 120.525 97.3707 121.39 98.1124 122.5C98.8541 123.61 99.25 124.915 99.25 126.25C99.25 128.04 98.5389 129.757 97.273 131.023C96.0071 132.289 94.2902 133 92.5 133ZM99.25 98.17V106C99.25 107.79 98.5389 109.507 97.273 110.773C96.0071 112.039 94.2902 112.75 92.5 112.75C90.7098 112.75 88.9929 112.039 87.7271 110.773C86.4612 109.507 85.75 107.79 85.75 106V92.5C85.75 90.7098 86.4612 88.9929 87.7271 87.727C88.9929 86.4611 90.7098 85.75 92.5 85.75C94.5026 85.75 96.4601 85.1562 98.1252 84.0436C99.7902 82.9311 101.088 81.3498 101.854 79.4997C102.621 77.6496 102.821 75.6138 102.43 73.6497C102.04 71.6856 101.075 69.8815 99.6595 68.4655C98.2435 67.0495 96.4394 66.0852 94.4753 65.6945C92.5113 65.3039 90.4754 65.5044 88.6253 66.2707C86.7752 67.037 85.1939 68.3348 84.0814 69.9998C82.9688 71.6649 82.375 73.6225 82.375 75.625C82.375 77.4152 81.6639 79.1321 80.398 80.398C79.1321 81.6638 77.4152 82.375 75.625 82.375C73.8348 82.375 72.1179 81.6638 70.8521 80.398C69.5862 79.1321 68.875 77.4152 68.875 75.625C68.8574 71.2395 70.0607 66.9357 72.3504 63.1954C74.64 59.455 77.9256 56.4258 81.8392 54.4469C85.7528 52.468 90.14 51.6174 94.5096 51.9905C98.8792 52.3636 103.059 53.9455 106.58 56.5593C110.102 59.173 112.826 62.7153 114.449 66.7897C116.071 70.864 116.527 75.3096 115.767 79.6286C115.006 83.9475 113.058 87.9695 110.141 91.2442C107.224 94.5189 103.453 96.9169 99.25 98.17Z" fill="white"/>
</g>
<defs>
<filter id="filter0_d_522_17" x="0" y="0" width="185" height="185" filterUnits="userSpaceOnUse" color-interpolation-filters="sRGB">
<feFlood flood-opacity="0" result="BackgroundImageFix"/>
<feColorMatrix in="SourceAlpha" type="matrix" values="0 0 0 0 0 0 0 0 0 0 0 0 0 0 0 0 0 0 127 0" result="hardAlpha"/>
<feOffset/>
<feGaussianBlur stdDeviation="12.5"/>
<feComposite in2="hardAlpha" operator="out"/>
<feColorMatrix type="matrix" values="0 0 0 0 0.302885 0 0 0 0 0.302885 0 0 0 0 1 0 0 0 1 0"/>
<feBlend mode="normal" in2="BackgroundImageFix" result="effect1_dropShadow_522_17"/>
<feBlend mode="normal" in="SourceGraphic" in2="effect1_dropShadow_522_17" result="shape"/>
</filter>
</defs>
</svg>
